{
  "accessors": [
    {
      "bufferView": 2,
      "componentType": 5126,
      "count": 15128,
      "max": [
        0.2783089280128479,
        0.26842987537384033,
        0.27777695655822754
      ],
      "min": [
        -0.2817894220352173,
        -0.2879190444946289,
        -0.28276360034942627
      ],
      "type": "VEC3"
    },
    {
      "bufferView": 2,
      "byteOffset": 181536,
      "componentType": 5126,
      "count": 15128,
      "max": [
        0.9998718500137329,
        0.9999613761901855,
        0.9998689889907837
      ],
      "min": [
        -0.9998784065246582,
        -0.9996799230575562,
        -0.9997043609619141
      ],
      "type": "VEC3"
    },
    {
      "bufferView": 1,
      "componentType": 5126,
      "count": 15128,
      "max": [
        0.9982342720031738,
        0.852812647819519
      ],
      "min": [
        0.001765633700415492,
        0.001765633700415492
      ],
      "type": "VEC2"
    },
    {
      "bufferView": 0,
      "componentType": 5125,
      "count": 86592,
      "type": "SCALAR"
    }
  ],
  "asset": {
    "extras": {
      "author": "urheilumuseo (https://sketchfab.com/urheilumuseo)",
      "license": "CC-BY-4.0 (http://creativecommons.org/licenses/by/4.0/)",
      "source": "https://sketchfab.com/3d-models/handball-1964-7961ab35937046e69b6820a018b03118",
      "title": "Handball 1964"
    },
    "generator": "Sketchfab-12.68.0",
    "version": "2.0"
  },
  "bufferViews": [
    {
      "buffer": 0,
      "byteLength": 346368,
      "name": "floatBufferViews",
      "target": 34963
    },
    {
      "buffer": 0,
      "byteLength": 121024,
      "byteOffset": 346368,
      "byteStride": 8,
      "name": "floatBufferViews",
      "target": 34962
    },
    {
      "buffer": 0,
      "byteLength": 363072,
      "byteOffset": 467392,
      "byteStride": 12,
      "name": "floatBufferViews",
      "target": 34962
    }
  ],
  "buffers": [
    {
      "byteLength": 830464,
      "uri": "scene.bin"
    }
  ],
  "images": [
    {
      "uri": "textures/kasipallo_1960_baseColor.png"
    }
  ],
  "materials": [
    {
      "doubleSided": true,
      "name": "kasipallo_1960",
      "pbrMetallicRoughness": {
        "baseColorTexture": {
          "index": 0
        },
        "metallicFactor": 0.0,
        "roughnessFactor": 0.8040408205773457
      }
    }
  ],
  "meshes": [
    {
      "name": "kasipallo_1960_kasipallo_1960_0",
      "primitives": [
        {
          "attributes": {
            "NORMAL": 1,
            "POSITION": 0,
            "TEXCOORD_0": 2
          },
          "indices": 3,
          "material": 0,
          "mode": 4
        }
      ]
    }
  ],
  "nodes": [
    {
      "children": [
        1
      ],
      "matrix": [
        1.0,
        0.0,
        0.0,
        0.0,
        0.0,
        2.220446049250313e-16,
        -1.0,
        0.0,
        0.0,
        1.0,
        2.220446049250313e-16,
        0.0,
        0.0,
        0.0,
        0.0,
        1.0
      ],
      "name": "Sketchfab_model"
    },
    {
      "children": [
        2
      ],
      "matrix": [
        1.0,
        0.0,
        0.0,
        0.0,
        0.0,
        0.0,
        1.0,
        0.0,
        0.0,
        -1.0,
        0.0,
        0.0,
        0.0,
        0.0,
        0.0,
        1.0
      ],
      "name": "f235924fcdcd4b32b6a6a1d3ff9ebf07.fbx"
    },
    {
      "children": [
        3
      ],
      "name": "RootNode"
    },
    {
      "children": [
        4
      ],
      "matrix": [
        100.0,
        0.0,
        0.0,
        0.0,
        0.0,
        -1.629206793918314e-05,
        -99.99999999999868,
        0.0,
        0.0,
        99.99999999999868,
        -1.629206793918314e-05,
        0.0,
        0.0,
        0.0,
        0.0,
        1.0
      ],
      "name": "kasipallo_1960"
    },
    {
      "mesh": 0,
      "name": "kasipallo_1960_kasipallo_1960_0"
    }
  ],
  "samplers": [
    {
      "magFilter": 9729,
      "minFilter": 9987,
      "wrapS": 10497,
      "wrapT": 10497
    }
  ],
  "scene": 0,
  "scenes": [
    {
      "name": "Sketchfab_Scene",
      "nodes": [
        0
      ]
    }
  ],
  "textures": [
    {
      "sampler": 0,
      "source": 0
    }
  ]
}
